{
  "accessors": [
    {
      "bufferView": 2,
      "componentType": 5126,
      "count": 973,
      "max": [
        21.238109588623047,
        10.151891708374023,
        48.3542366027832
      ],
      "min": [
        -16.0,
        -9.848108291625977,
        0.0
      ],
      "type": "VEC3"
    },
    {
      "bufferView": 2,
      "byteOffset": 11676,
      "componentType": 5126,
      "count": 973,
      "max": [
        1.0,
        1.0,
        0.9957007169723511
      ],
      "min": [
        -1.0,
        -1.0,
        -0.9956867098808289
      ],
      "type": "VEC3"
    },
    {
      "bufferView": 3,
      "componentType": 5126,
      "count": 973,
      "max": [
        0.9997793436050415,
        1.0,
        1.0,
        1.0
      ],
      "min": [
        -0.9996169209480286,
        -1.0,
        -1.0,
        1.0
      ],
      "type": "VEC4"
    },
    {
      "bufferView": 1,
      "componentType": 5126,
      "count": 973,
      "max": [
        0.9978907108306885,
        0.947168231010437
      ],
      "min": [
        0.0019592642784118652,
        0.002068817615509033
      ],
      "type": "VEC2"
    },
    {
      "bufferView": 1,
      "byteOffset": 7784,
      "componentType": 5126,
      "count": 973,
      "max": [
        0.9978907108306885,
        0.947168231010437
      ],
      "min": [
        0.0019592642784118652,
        0.002068817615509033
      ],
      "type": "VEC2"
    },
    {
      "bufferView": 0,
      "componentType": 5125,
      "count": 4320,
      "type": "SCALAR"
    }
  ],
  "asset": {
    "extras": {
      "author": "jeff_severson (https://sketchfab.com/jeff_severson)",
      "license": "SKETCHFAB Standard (https://sketchfab.com/licenses)",
      "source": "https://sketchfab.com/3d-models/lamp-art-deco-02-bbe7bc88e41c47dba8327647f9f520b3",
      "title": "Lamp Art Deco 02"
    },
    "generator": "Sketchfab-12.68.0",
    "version": "2.0"
  },
  "bufferViews": [
    {
      "buffer": 0,
      "byteLength": 17280,
      "name": "floatBufferViews",
      "target": 34963
    },
    {
      "buffer": 0,
      "byteLength": 15568,
      "byteOffset": 17280,
      "byteStride": 8,
      "name": "floatBufferViews",
      "target": 34962
    },
    {
      "buffer": 0,
      "byteLength": 23352,
      "byteOffset": 32848,
      "byteStride": 12,
      "name": "floatBufferViews",
      "target": 34962
    },
    {
      "buffer": 0,
      "byteLength": 15568,
      "byteOffset": 56200,
      "byteStride": 16,
      "name": "floatBufferViews",
      "target": 34962
    }
  ],
  "buffers": [
    {
      "byteLength": 71768,
      "uri": "scene.bin"
    }
  ],
  "images": [
    {
      "uri": "textures/lamp_deskA_01_baseColor.png"
    },
    {
      "uri": "textures/lamp_deskA_01_metallicRoughness.png"
    },
    {
      "uri": "textures/lamp_deskA_01_emissive.png"
    },
    {
      "uri": "textures/lamp_deskA_01_normal.png"
    }
  ],
  "materials": [
    {
      "doubleSided": true,
      "emissiveFactor": [
        1.0,
        1.0,
        1.0
      ],
      "emissiveTexture": {
        "index": 2
      },
      "name": "lamp_deskA_01",
      "normalTexture": {
        "index": 3
      },
      "occlusionTexture": {
        "index": 1,
        "strength": 0.7822027439
      },
      "pbrMetallicRoughness": {
        "baseColorTexture": {
          "index": 0
        },
        "metallicRoughnessTexture": {
          "index": 1
        },
        "roughnessFactor": 0.270007622
      }
    }
  ],
  "meshes": [
    {
      "name": "lamp_deskA_01_lamp_deskA_01_0",
      "primitives": [
        {
          "attributes": {
            "NORMAL": 1,
            "POSITION": 0,
            "TANGENT": 2,
            "TEXCOORD_0": 3,
            "TEXCOORD_1": 4
          },
          "indices": 5,
          "material": 0,
          "mode": 4
        }
      ]
    }
  ],
  "nodes": [
    {
      "children": [
        1
      ],
      "matrix": [
        1.0,
        0.0,
        0.0,
        0.0,
        0.0,
        2.220446049250313e-16,
        -1.0,
        0.0,
        0.0,
        1.0,
        2.220446049250313e-16,
        0.0,
        0.0,
        0.0,
        0.0,
        1.0
      ],
      "name": "Sketchfab_model"
    },
    {
      "children": [
        2
      ],
      "matrix": [
        1.0,
        0.0,
        0.0,
        0.0,
        0.0,
        0.0,
        1.0,
        0.0,
        0.0,
        -1.0,
        0.0,
        0.0,
        0.0,
        0.0,
        0.0,
        1.0
      ],
      "name": "1866efe5ea19409dbcbc5a6a09250516.fbx"
    },
    {
      "children": [
        3
      ],
      "name": "RootNode"
    },
    {
      "children": [
        4
      ],
      "matrix": [
        1.0,
        0.0,
        0.0,
        0.0,
        0.0,
        2.220446049250313e-16,
        -1.0,
        0.0,
        0.0,
        1.0,
        2.220446049250313e-16,
        0.0,
        0.0,
        0.0,
        0.0,
        1.0
      ],
      "name": "lamp_deskA_01"
    },
    {
      "mesh": 0,
      "name": "lamp_deskA_01_lamp_deskA_01_0"
    }
  ],
  "samplers": [
    {
      "magFilter": 9729,
      "minFilter": 9987,
      "wrapS": 10497,
      "wrapT": 10497
    }
  ],
  "scene": 0,
  "scenes": [
    {
      "name": "Sketchfab_Scene",
      "nodes": [
        0
      ]
    }
  ],
  "textures": [
    {
      "sampler": 0,
      "source": 0
    },
    {
      "sampler": 0,
      "source": 1
    },
    {
      "sampler": 0,
      "source": 2
    },
    {
      "sampler": 0,
      "source": 3
    }
  ]
}
